<svg width="20" height="20" viewBox="0 0 20 20" fill="none" xmlns="http://www.w3.org/2000/svg">
<rect width="20" height="20" rx="10" fill="#590BD8" fill-opacity="0.13"/>
<path d="M12.3147 15.5604C12.3669 15.6126 12.4084 15.6747 12.4367 15.7429C12.465 15.8112 12.4795 15.8844 12.4795 15.9583C12.4795 16.0322 12.465 16.1054 12.4367 16.1737C12.4084 16.242 12.3669 16.304 12.3147 16.3563C12.2624 16.4086 12.2004 16.45 12.1321 16.4783C12.0638 16.5066 11.9906 16.5211 11.9167 16.5211C11.8428 16.5211 11.7696 16.5066 11.7013 16.4783C11.633 16.45 11.571 16.4086 11.5187 16.3563L5.89373 10.7313C5.84143 10.679 5.79994 10.617 5.77164 10.5487C5.74333 10.4804 5.72876 10.4072 5.72876 10.3333C5.72876 10.2594 5.74333 10.1862 5.77164 10.1179C5.79994 10.0496 5.84143 9.98759 5.89373 9.93535L11.5187 4.31035C11.6243 4.2048 11.7674 4.14551 11.9167 4.14551C12.066 4.14551 12.2091 4.2048 12.3147 4.31035C12.4202 4.4159 12.4795 4.55905 12.4795 4.70832C12.4795 4.85759 12.4202 5.00074 12.3147 5.10629L7.08694 10.3333L12.3147 15.5604Z" fill="#590BD8"/>
</svg>
