<svg width="26" height="25" viewBox="0 0 26 25" fill="none" xmlns="http://www.w3.org/2000/svg">
<g id="Group">
<g id="Group_2">
<path id="Vector" d="M23.7143 0C24.6554 0 25.4268 0.728571 25.4955 1.65268L25.5 1.78571V23.2143C25.5 24.1554 24.7714 24.9268 23.8473 24.9946L23.7143 25H2.28571C1.34464 25 0.573214 24.2714 0.504464 23.3473L0.5 23.2143V1.78571C0.5 0.844643 1.22857 0.0732141 2.15268 0.00446439L2.28571 0H23.7143ZM13 4.38839L10.2446 7.14286H2.28571V23.2143H9.42857V18.75C9.42857 17.8089 10.1571 17.0375 11.0812 16.9688L11.2143 16.9643H14.7857C15.7268 16.9643 16.4982 17.6929 16.567 18.617L16.5714 18.75V23.2143H23.7143V7.14286H15.7554L13 4.38839ZM14.7857 18.75H11.2143V23.2143H14.7857V18.75ZM20.1429 16.9643C20.6357 16.9643 21.0357 17.3643 21.0357 17.8571C21.0357 18.35 20.6357 18.75 20.1429 18.75C19.65 18.75 19.25 18.35 19.25 17.8571C19.25 17.3643 19.65 16.9643 20.1429 16.9643ZM5.85714 16.9643C6.35 16.9643 6.75 17.3643 6.75 17.8571C6.75 18.35 6.35 18.75 5.85714 18.75C5.36429 18.75 4.96429 18.35 4.96429 17.8571C4.96429 17.3643 5.36429 16.9643 5.85714 16.9643ZM20.1429 13.3929C20.6357 13.3929 21.0357 13.7929 21.0357 14.2857C21.0357 14.7786 20.6357 15.1786 20.1429 15.1786C19.65 15.1786 19.25 14.7786 19.25 14.2857C19.25 13.7929 19.65 13.3929 20.1429 13.3929ZM5.85714 13.3929C6.35 13.3929 6.75 13.7929 6.75 14.2857C6.75 14.7786 6.35 15.1786 5.85714 15.1786C5.36429 15.1786 4.96429 14.7786 4.96429 14.2857C4.96429 13.7929 5.36429 13.3929 5.85714 13.3929ZM20.1429 9.82143C20.6357 9.82143 21.0357 10.2214 21.0357 10.7143C21.0357 11.2071 20.6357 11.6071 20.1429 11.6071C19.65 11.6071 19.25 11.2071 19.25 10.7143C19.25 10.2214 19.65 9.82143 20.1429 9.82143ZM13 9.82143C13.4929 9.82143 13.8929 10.2214 13.8929 10.7143C13.8929 11.2071 13.4929 11.6071 13 11.6071C12.5071 11.6071 12.1071 11.2071 12.1071 10.7143C12.1071 10.2214 12.5071 9.82143 13 9.82143ZM5.85714 9.82143C6.35 9.82143 6.75 10.2214 6.75 10.7143C6.75 11.2071 6.35 11.6071 5.85714 11.6071C5.36429 11.6071 4.96429 11.2071 4.96429 10.7143C4.96429 10.2214 5.36429 9.82143 5.85714 9.82143ZM23.7143 5.35714V1.78571H2.28571V5.35714H9.50357L11.7375 3.125C12.3982 2.46429 13.4473 2.42946 14.1491 3.02054L14.2625 3.125L16.4955 5.35714H23.7143Z" fill="#717171"/>
</g>
</g>
</svg>
