<svg width="152" height="32" viewBox="0 0 152 32" fill="none" xmlns="http://www.w3.org/2000/svg">
<path d="M29.3864 22.7101C29.2429 22.3073 29.0752 21.9176 28.9157 21.5565C28.6701 21.0011 28.4129 20.4446 28.1641 19.9067L28.1444 19.864C25.9255 15.0589 23.5439 10.1881 21.0659 5.38701L20.9607 5.18316C20.7079 4.69289 20.4466 4.18596 20.1784 3.68786C19.8604 3.0575 19.4745 2.4636 19.0276 1.91668C18.5245 1.31651 17.8956 0.833822 17.1853 0.502654C16.475 0.171486 15.7005 -9.83959e-05 14.9165 4.23316e-08C14.1325 9.84805e-05 13.3581 0.171877 12.6478 0.503224C11.9376 0.834571 11.3088 1.31742 10.8059 1.91771C10.3595 2.46476 9.97383 3.05853 9.65572 3.68858C9.38521 4.19115 9.12145 4.70278 8.8664 5.19757L8.76872 5.38696C6.29061 10.1884 3.90903 15.0592 1.69015 19.8639L1.65782 19.9338C1.41334 20.463 1.16057 21.0102 0.919073 21.5563C0.75949 21.9171 0.592009 22.3065 0.448355 22.7103C0.0369063 23.8104 -0.094204 24.9953 0.0668098 26.1585C0.237562 27.334 0.713008 28.4447 1.44606 29.3804C2.17911 30.3161 3.14434 31.0444 4.24614 31.4932C5.07835 31.8299 5.96818 32.002 6.86616 32C7.14824 31.9999 7.43008 31.9835 7.71027 31.9509C8.846 31.8062 9.94136 31.4366 10.9321 30.8639C12.2317 30.1338 13.5152 29.0638 14.9173 27.5348C16.3194 29.0638 17.6029 30.1338 18.9025 30.8639C19.8932 31.4367 20.9886 31.8062 22.1243 31.9509C22.4045 31.9835 22.6864 31.9999 22.9685 32C23.8664 32.002 24.7561 31.8299 25.5883 31.4932C26.6901 31.0444 27.6554 30.3161 28.3885 29.3804C29.1216 28.4447 29.5971 27.3341 29.7679 26.1585C29.9287 24.9952 29.7976 23.8103 29.3864 22.7101ZM14.9173 24.377C13.1816 22.1769 12.0678 20.1338 11.677 18.421C11.5169 17.7792 11.4791 17.1131 11.5656 16.4573C11.6339 15.9766 11.8105 15.5176 12.0821 15.1148C12.4163 14.6814 12.8458 14.3304 13.3374 14.0889C13.829 13.8475 14.3696 13.7219 14.9175 13.7219C15.4655 13.722 16.006 13.8476 16.4976 14.0892C16.9892 14.3307 17.4186 14.6817 17.7528 15.1151C18.0244 15.5181 18.201 15.9771 18.2693 16.4579C18.3556 17.114 18.3177 17.7803 18.1573 18.4223C17.7661 20.1349 16.6526 22.1774 14.9173 24.377ZM27.7406 25.8689C27.6212 26.6908 27.2887 27.4674 26.7762 28.1216C26.2636 28.7759 25.5887 29.2852 24.8183 29.599C24.0393 29.9111 23.1939 30.0217 22.3607 29.9205C21.4946 29.8089 20.6599 29.5239 19.9069 29.0824C18.7501 28.4325 17.5791 27.4348 16.2614 25.9712C18.3591 23.3846 19.669 21.0005 20.154 18.877C20.3723 17.984 20.4196 17.0579 20.2935 16.1475C20.1791 15.3632 19.8879 14.615 19.4419 13.9593C18.9194 13.2519 18.2378 12.6768 17.452 12.2805C16.6661 11.8842 15.798 11.6777 14.9175 11.6777C14.0371 11.6777 13.1689 11.8841 12.383 12.2803C11.5971 12.6765 10.9155 13.2515 10.393 13.9589C9.94707 14.6144 9.65591 15.3624 9.5414 16.1465C9.41524 17.0566 9.4623 17.9822 9.68011 18.8749C10.1648 20.9993 11.4748 23.384 13.5732 25.9714C12.2555 27.4348 11.0845 28.4325 9.92769 29.0825C9.17468 29.5239 8.34007 29.809 7.47395 29.9205C6.64065 30.0217 5.79525 29.9111 5.0162 29.599C4.24581 29.2852 3.57092 28.7759 3.05838 28.1217C2.54585 27.4674 2.21345 26.6908 2.09411 25.8689C1.97932 25.0334 2.07701 24.1825 2.37818 23.3946C2.49266 23.0728 2.62663 22.757 2.7926 22.3818C3.0274 21.851 3.27657 21.3115 3.51759 20.7898L3.54996 20.7197C5.75643 15.9419 8.12481 11.0982 10.5894 6.32294L10.6875 6.13283C10.9384 5.64601 11.1979 5.14267 11.4597 4.6563C11.7101 4.15501 12.0132 3.68171 12.3639 3.2444C12.6746 2.86903 13.0646 2.56681 13.5059 2.35934C13.9473 2.15186 14.4291 2.04426 14.9169 2.04422C15.4047 2.04418 15.8866 2.15171 16.3279 2.35911C16.7693 2.56651 17.1593 2.86867 17.4701 3.24399C17.821 3.68097 18.1242 4.15411 18.3744 4.65538C18.6338 5.13742 18.891 5.63623 19.1398 6.11858L19.2452 6.32315C21.7097 11.0979 24.078 15.9415 26.2847 20.7201L26.3046 20.7631C26.5498 21.2936 26.8033 21.8419 27.042 22.382C27.2082 22.7577 27.3424 23.0738 27.4566 23.3944C27.7576 24.1824 27.8553 25.0333 27.7406 25.8689Z" fill="#590BD8"/>
<path d="M53.88 9.04V11.3H50.16V23H47.36V11.3H43.64V9.04H53.88ZM58.723 13.64C59.083 13.0533 59.5496 12.5933 60.123 12.26C60.7096 11.9267 61.3763 11.76 62.123 11.76V14.7H61.383C60.503 14.7 59.8363 14.9067 59.383 15.32C58.943 15.7333 58.723 16.4533 58.723 17.48V23H55.923V11.92H58.723V13.64ZM63.2889 17.42C63.2889 16.3 63.5089 15.3067 63.9489 14.44C64.4022 13.5733 65.0089 12.9067 65.7689 12.44C66.5422 11.9733 67.4022 11.74 68.3489 11.74C69.1756 11.74 69.8956 11.9067 70.5089 12.24C71.1356 12.5733 71.6356 12.9933 72.0089 13.5V11.92H74.8289V23H72.0089V21.38C71.6489 21.9 71.1489 22.3333 70.5089 22.68C69.8822 23.0133 69.1556 23.18 68.3289 23.18C67.3956 23.18 66.5422 22.94 65.7689 22.46C65.0089 21.98 64.4022 21.3067 63.9489 20.44C63.5089 19.56 63.2889 18.5533 63.2889 17.42ZM72.0089 17.46C72.0089 16.78 71.8756 16.2 71.6089 15.72C71.3422 15.2267 70.9822 14.8533 70.5289 14.6C70.0756 14.3333 69.5889 14.2 69.0689 14.2C68.5489 14.2 68.0689 14.3267 67.6289 14.58C67.1889 14.8333 66.8289 15.2067 66.5489 15.7C66.2822 16.18 66.1489 16.7533 66.1489 17.42C66.1489 18.0867 66.2822 18.6733 66.5489 19.18C66.8289 19.6733 67.1889 20.0533 67.6289 20.32C68.0822 20.5867 68.5622 20.72 69.0689 20.72C69.5889 20.72 70.0756 20.5933 70.5289 20.34C70.9822 20.0733 71.3422 19.7 71.6089 19.22C71.8756 18.7267 72.0089 18.14 72.0089 17.46ZM82.1836 20.42L84.9836 11.92H87.9636L83.8636 23H80.4636L76.3836 11.92H79.3836L82.1836 20.42ZM99.8363 17.22C99.8363 17.62 99.8096 17.98 99.7563 18.3H91.6563C91.7229 19.1 92.0029 19.7267 92.4963 20.18C92.9896 20.6333 93.5963 20.86 94.3163 20.86C95.3563 20.86 96.0963 20.4133 96.5363 19.52H99.5563C99.2363 20.5867 98.6229 21.4667 97.7163 22.16C96.8096 22.84 95.6963 23.18 94.3763 23.18C93.3096 23.18 92.3496 22.9467 91.4963 22.48C90.6563 22 89.9963 21.3267 89.5163 20.46C89.0496 19.5933 88.8162 18.5933 88.8162 17.46C88.8162 16.3133 89.0496 15.3067 89.5163 14.44C89.9829 13.5733 90.6363 12.9067 91.4763 12.44C92.3163 11.9733 93.2829 11.74 94.3763 11.74C95.4296 11.74 96.3696 11.9667 97.1963 12.42C98.0363 12.8733 98.6829 13.52 99.1363 14.36C99.6029 15.1867 99.8363 16.14 99.8363 17.22ZM96.9363 16.42C96.9229 15.7 96.6629 15.1267 96.1563 14.7C95.6496 14.26 95.0296 14.04 94.2963 14.04C93.6029 14.04 93.0163 14.2533 92.5363 14.68C92.0696 15.0933 91.7829 15.6733 91.6763 16.42H96.9363ZM104.68 8.2V23H101.88V8.2H104.68ZM119.386 23H116.586L110.246 13.42V23H107.446V9.02H110.246L116.586 18.62V9.02H119.386V23ZM132.453 17.22C132.453 17.62 132.427 17.98 132.373 18.3H124.273C124.34 19.1 124.62 19.7267 125.113 20.18C125.607 20.6333 126.213 20.86 126.933 20.86C127.973 20.86 128.713 20.4133 129.153 19.52H132.173C131.853 20.5867 131.24 21.4667 130.333 22.16C129.427 22.84 128.313 23.18 126.993 23.18C125.927 23.18 124.967 22.9467 124.113 22.48C123.273 22 122.613 21.3267 122.133 20.46C121.667 19.5933 121.433 18.5933 121.433 17.46C121.433 16.3133 121.667 15.3067 122.133 14.44C122.6 13.5733 123.253 12.9067 124.093 12.44C124.933 11.9733 125.9 11.74 126.993 11.74C128.047 11.74 128.987 11.9667 129.813 12.42C130.653 12.8733 131.3 13.52 131.753 14.36C132.22 15.1867 132.453 16.14 132.453 17.22ZM129.553 16.42C129.54 15.7 129.28 15.1267 128.773 14.7C128.267 14.26 127.647 14.04 126.913 14.04C126.22 14.04 125.633 14.2533 125.153 14.68C124.687 15.0933 124.4 15.6733 124.293 16.42H129.553ZM138.737 23.18C137.831 23.18 137.017 23.02 136.297 22.7C135.577 22.3667 135.004 21.92 134.577 21.36C134.164 20.8 133.937 20.18 133.897 19.5H136.717C136.771 19.9267 136.977 20.28 137.337 20.56C137.711 20.84 138.171 20.98 138.717 20.98C139.251 20.98 139.664 20.8733 139.957 20.66C140.264 20.4467 140.417 20.1733 140.417 19.84C140.417 19.48 140.231 19.2133 139.857 19.04C139.497 18.8533 138.917 18.6533 138.117 18.44C137.291 18.24 136.611 18.0333 136.077 17.82C135.557 17.6067 135.104 17.28 134.717 16.84C134.344 16.4 134.157 15.8067 134.157 15.06C134.157 14.4467 134.331 13.8867 134.677 13.38C135.037 12.8733 135.544 12.4733 136.197 12.18C136.864 11.8867 137.644 11.74 138.537 11.74C139.857 11.74 140.911 12.0733 141.697 12.74C142.484 13.3933 142.917 14.28 142.997 15.4H140.317C140.277 14.96 140.091 14.6133 139.757 14.36C139.437 14.0933 139.004 13.96 138.457 13.96C137.951 13.96 137.557 14.0533 137.277 14.24C137.011 14.4267 136.877 14.6867 136.877 15.02C136.877 15.3933 137.064 15.68 137.437 15.88C137.811 16.0667 138.391 16.26 139.177 16.46C139.977 16.66 140.637 16.8667 141.157 17.08C141.677 17.2933 142.124 17.6267 142.497 18.08C142.884 18.52 143.084 19.1067 143.097 19.84C143.097 20.48 142.917 21.0533 142.557 21.56C142.211 22.0667 141.704 22.4667 141.037 22.76C140.384 23.04 139.617 23.18 138.737 23.18ZM148.656 14.22V19.58C148.656 19.9533 148.742 20.2267 148.916 20.4C149.102 20.56 149.409 20.64 149.836 20.64H151.136V23H149.376C147.016 23 145.836 21.8533 145.836 19.56V14.22H144.516V11.92H145.836V9.18H148.656V11.92H151.136V14.22H148.656Z" fill="#590BD8"/>
</svg>
